<?xml version="1.0" encoding="UTF-8" standalone="no"?>
<!DOCTYPE svg PUBLIC "-//W3C//DTD SVG 1.1//EN"
 "http://www.w3.org/Graphics/SVG/1.1/DTD/svg11.dtd">
<!-- Generated by graphviz version 2.38.0 (20140413.2041)
 -->
<!-- Title: G Pages: 1 -->
<svg width="543pt" height="1608pt"
 viewBox="0.00 0.00 543.00 1608.00" xmlns="http://www.w3.org/2000/svg" xmlns:xlink="http://www.w3.org/1999/xlink">
<g id="graph0" class="graph" transform="scale(1 1) rotate(0) translate(4 1604)">
<title>G</title>
<polygon fill="white" stroke="none" points="-4,4 -4,-1604 539,-1604 539,4 -4,4"/>
<g id="clust1" class="cluster"><title>cluster_Global</title>
<path fill="none" stroke="gray" d="M20,-8C20,-8 515,-8 515,-8 521,-8 527,-14 527,-20 527,-20 527,-1580 527,-1580 527,-1586 521,-1592 515,-1592 515,-1592 20,-1592 20,-1592 14,-1592 8,-1586 8,-1580 8,-1580 8,-20 8,-20 8,-14 14,-8 20,-8"/>
<text text-anchor="middle" x="267.5" y="-1579.2" font-family="Times,serif" font-size="11.00" fill="gray">Global</text>
</g>
<!-- \\O3PO_Deactivator -->
<g id="node1" class="node"><title>\\O3PO_Deactivator</title>
<polygon fill="none" stroke="black" points="475.5,-1564 350.5,-1564 350.5,-1528 475.5,-1528 475.5,-1564"/>
<text text-anchor="middle" x="413" y="-1543.2" font-family="Courier,monospace" font-size="11.00">O3PO_Deactivator</text>
</g>
<!-- \\O3PO_Public -->
<g id="node2" class="node"><title>\\O3PO_Public</title>
<polygon fill="none" stroke="black" points="458.5,-1510 367.5,-1510 367.5,-1474 458.5,-1474 458.5,-1510"/>
<text text-anchor="middle" x="413" y="-1489.2" font-family="Courier,monospace" font-size="11.00">O3PO_Public</text>
</g>
<!-- \\O3PO_Doaj -->
<g id="node3" class="node"><title>\\O3PO_Doaj</title>
<polygon fill="none" stroke="black" points="451.5,-1456 374.5,-1456 374.5,-1420 451.5,-1420 451.5,-1456"/>
<text text-anchor="middle" x="413" y="-1435.2" font-family="Courier,monospace" font-size="11.00">O3PO_Doaj</text>
</g>
<!-- \\O3PO_Activator -->
<g id="node4" class="node"><title>\\O3PO_Activator</title>
<polygon fill="none" stroke="black" points="468.5,-1402 357.5,-1402 357.5,-1366 468.5,-1366 468.5,-1402"/>
<text text-anchor="middle" x="413" y="-1381.2" font-family="Courier,monospace" font-size="11.00">O3PO_Activator</text>
</g>
<!-- \\O3PO_Latex -->
<g id="node5" class="node"><title>\\O3PO_Latex</title>
<polygon fill="none" stroke="black" points="455,-1348 371,-1348 371,-1312 455,-1312 455,-1348"/>
<text text-anchor="middle" x="413" y="-1327.2" font-family="Courier,monospace" font-size="11.00">O3PO_Latex</text>
</g>
<!-- \\O3PO_Latex_Dictionary_Provider -->
<g id="node6" class="node"><title>\\O3PO_Latex_Dictionary_Provider</title>
<polygon fill="none" stroke="black" points="235,-1348 16,-1348 16,-1312 235,-1312 235,-1348"/>
<text text-anchor="middle" x="125.5" y="-1327.2" font-family="Courier,monospace" font-size="11.00">O3PO_Latex_Dictionary_Provider</text>
</g>
<!-- \\O3PO_Latex&#45;&gt;\\O3PO_Latex_Dictionary_Provider -->
<g id="edge1" class="edge"><title>\\O3PO_Latex&#45;&gt;\\O3PO_Latex_Dictionary_Provider</title>
<path fill="none" stroke="black" d="M370.791,-1330C337.843,-1330 289.932,-1330 245.251,-1330"/>
<polygon fill="none" stroke="black" points="245.176,-1326.5 235.176,-1330 245.176,-1333.5 245.176,-1326.5"/>
</g>
<!-- \\O3PO_ShortcodeTemplate -->
<g id="node7" class="node"><title>\\O3PO_ShortcodeTemplate</title>
<polygon fill="none" stroke="black" points="495.5,-1294 330.5,-1294 330.5,-1258 495.5,-1258 495.5,-1294"/>
<text text-anchor="middle" x="413" y="-1273.2" font-family="Courier,monospace" font-size="11.00">O3PO_ShortcodeTemplate</text>
</g>
<!-- \\O3PO_Ads -->
<g id="node8" class="node"><title>\\O3PO_Ads</title>
<polygon fill="none" stroke="black" points="448.5,-1240 377.5,-1240 377.5,-1204 448.5,-1204 448.5,-1240"/>
<text text-anchor="middle" x="413" y="-1219.2" font-family="Courier,monospace" font-size="11.00">O3PO_Ads</text>
</g>
<!-- \\O3PO_Crossref -->
<g id="node9" class="node"><title>\\O3PO_Crossref</title>
<polygon fill="none" stroke="black" points="465,-1186 361,-1186 361,-1150 465,-1150 465,-1186"/>
<text text-anchor="middle" x="413" y="-1165.2" font-family="Courier,monospace" font-size="11.00">O3PO_Crossref</text>
</g>
<!-- \\O3PO_PrimaryPublicationType -->
<g id="node10" class="node"><title>\\O3PO_PrimaryPublicationType</title>
<polygon fill="none" stroke="black" points="512.5,-1132 313.5,-1132 313.5,-1096 512.5,-1096 512.5,-1132"/>
<text text-anchor="middle" x="413" y="-1111.2" font-family="Courier,monospace" font-size="11.00">O3PO_PrimaryPublicationType</text>
</g>
<!-- \\O3PO_PublicationType -->
<g id="node15" class="node"><title>\\O3PO_PublicationType</title>
<polygon fill="none" stroke="black" points="201.5,-997 49.5,-997 49.5,-961 201.5,-961 201.5,-997"/>
<text text-anchor="start" x="91.5" y="-982.2" font-family="Courier,monospace" font-size="11.00">«abstract»</text>
<text text-anchor="start" x="57.5" y="-970.2" font-family="Courier,monospace" font-size="11.00">O3PO_PublicationType</text>
</g>
<!-- \\O3PO_PrimaryPublicationType&#45;&gt;\\O3PO_PublicationType -->
<g id="edge2" class="edge"><title>\\O3PO_PrimaryPublicationType&#45;&gt;\\O3PO_PublicationType</title>
<path fill="none" stroke="black" d="M331.802,-1095.95C323.314,-1093.28 314.903,-1090.3 307,-1087 252.633,-1064.31 195.106,-1027.32 159.992,-1003.07"/>
<polygon fill="none" stroke="black" points="161.769,-1000.05 151.564,-997.201 157.767,-1005.79 161.769,-1000.05"/>
</g>
<!-- \\O3PO_i18n -->
<g id="node11" class="node"><title>\\O3PO_i18n</title>
<polygon fill="none" stroke="black" points="451.5,-1078 374.5,-1078 374.5,-1042 451.5,-1042 451.5,-1078"/>
<text text-anchor="middle" x="413" y="-1057.2" font-family="Courier,monospace" font-size="11.00">O3PO_i18n</text>
</g>
<!-- \\O3PO_Bibentry -->
<g id="node12" class="node"><title>\\O3PO_Bibentry</title>
<polygon fill="none" stroke="black" points="465,-1024 361,-1024 361,-988 465,-988 465,-1024"/>
<text text-anchor="middle" x="413" y="-1003.2" font-family="Courier,monospace" font-size="11.00">O3PO_Bibentry</text>
</g>
<!-- \\O3PO_Singleton -->
<g id="node13" class="node"><title>\\O3PO_Singleton</title>
<polygon fill="none" stroke="black" points="181,-646 70,-646 70,-610 181,-610 181,-646"/>
<text text-anchor="middle" x="125.5" y="-625.2" font-family="Courier,monospace" font-size="11.00">O3PO_Singleton</text>
</g>
<!-- \\O3PO_Ready2PublishForm -->
<g id="node14" class="node"><title>\\O3PO_Ready2PublishForm</title>
<polygon fill="none" stroke="black" points="495.5,-970 330.5,-970 330.5,-934 495.5,-934 495.5,-970"/>
<text text-anchor="middle" x="413" y="-949.2" font-family="Courier,monospace" font-size="11.00">O3PO_Ready2PublishForm</text>
</g>
<!-- \\O3PO_Buffer -->
<g id="node16" class="node"><title>\\O3PO_Buffer</title>
<polygon fill="none" stroke="black" points="458.5,-916 367.5,-916 367.5,-880 458.5,-880 458.5,-916"/>
<text text-anchor="middle" x="413" y="-895.2" font-family="Courier,monospace" font-size="11.00">O3PO_Buffer</text>
</g>
<!-- \\O3PO_SecondaryPublicationType -->
<g id="node17" class="node"><title>\\O3PO_SecondaryPublicationType</title>
<polygon fill="none" stroke="black" points="519,-862 307,-862 307,-826 519,-826 519,-862"/>
<text text-anchor="middle" x="413" y="-841.2" font-family="Courier,monospace" font-size="11.00">O3PO_SecondaryPublicationType</text>
</g>
<!-- \\O3PO_SecondaryPublicationType&#45;&gt;\\O3PO_PublicationType -->
<g id="edge3" class="edge"><title>\\O3PO_SecondaryPublicationType&#45;&gt;\\O3PO_PublicationType</title>
<path fill="none" stroke="black" d="M331.802,-862.053C323.314,-864.722 314.903,-867.701 307,-871 252.633,-893.695 195.106,-930.676 159.992,-954.925"/>
<polygon fill="none" stroke="black" points="157.767,-952.21 151.564,-960.799 161.769,-957.953 157.767,-952.21"/>
</g>
<!-- \\O3PO_Plotter -->
<g id="node18" class="node"><title>\\O3PO_Plotter</title>
<polygon fill="none" stroke="black" points="462,-808 364,-808 364,-772 462,-772 462,-808"/>
<text text-anchor="middle" x="413" y="-787.2" font-family="Courier,monospace" font-size="11.00">O3PO_Plotter</text>
</g>
<!-- \\O3PO_Admin -->
<g id="node19" class="node"><title>\\O3PO_Admin</title>
<polygon fill="none" stroke="black" points="455,-754 371,-754 371,-718 455,-718 455,-754"/>
<text text-anchor="middle" x="413" y="-733.2" font-family="Courier,monospace" font-size="11.00">O3PO_Admin</text>
</g>
<!-- \\O3PO_Author -->
<g id="node20" class="node"><title>\\O3PO_Author</title>
<polygon fill="none" stroke="black" points="458.5,-700 367.5,-700 367.5,-664 458.5,-664 458.5,-700"/>
<text text-anchor="middle" x="413" y="-679.2" font-family="Courier,monospace" font-size="11.00">O3PO_Author</text>
</g>
<!-- \\O3PO_Settings -->
<g id="node21" class="node"><title>\\O3PO_Settings</title>
<polygon fill="none" stroke="black" points="465,-646 361,-646 361,-610 465,-610 465,-646"/>
<text text-anchor="middle" x="413" y="-625.2" font-family="Courier,monospace" font-size="11.00">O3PO_Settings</text>
</g>
<!-- \\O3PO_Settings&#45;&gt;\\O3PO_Singleton -->
<g id="edge4" class="edge"><title>\\O3PO_Settings&#45;&gt;\\O3PO_Singleton</title>
<path fill="none" stroke="black" d="M360.958,-628C313.593,-628 242.868,-628 191.487,-628"/>
<polygon fill="none" stroke="black" points="191.481,-624.5 181.481,-628 191.481,-631.5 191.481,-624.5"/>
</g>
<!-- \\O3PO_Relevanssi -->
<g id="node22" class="node"><title>\\O3PO_Relevanssi</title>
<polygon fill="none" stroke="black" points="472,-592 354,-592 354,-556 472,-556 472,-592"/>
<text text-anchor="middle" x="413" y="-571.2" font-family="Courier,monospace" font-size="11.00">O3PO_Relevanssi</text>
</g>
<!-- \\O3PO_Clockss -->
<g id="node23" class="node"><title>\\O3PO_Clockss</title>
<polygon fill="none" stroke="black" points="462,-538 364,-538 364,-502 462,-502 462,-538"/>
<text text-anchor="middle" x="413" y="-517.2" font-family="Courier,monospace" font-size="11.00">O3PO_Clockss</text>
</g>
<!-- \\O3PO_Utility -->
<g id="node24" class="node"><title>\\O3PO_Utility</title>
<polygon fill="none" stroke="black" points="462,-484 364,-484 364,-448 462,-448 462,-484"/>
<text text-anchor="middle" x="413" y="-463.2" font-family="Courier,monospace" font-size="11.00">O3PO_Utility</text>
</g>
<!-- \\O3PO -->
<g id="node25" class="node"><title>\\O3PO</title>
<polygon fill="none" stroke="black" points="440,-430 386,-430 386,-394 440,-394 440,-430"/>
<text text-anchor="middle" x="413" y="-409.2" font-family="Courier,monospace" font-size="11.00">O3PO</text>
</g>
<!-- \\O3PO_Environment -->
<g id="node26" class="node"><title>\\O3PO_Environment</title>
<polygon fill="none" stroke="black" points="475.5,-376 350.5,-376 350.5,-340 475.5,-340 475.5,-376"/>
<text text-anchor="middle" x="413" y="-355.2" font-family="Courier,monospace" font-size="11.00">O3PO_Environment</text>
</g>
<!-- \\O3PO_Journal -->
<g id="node27" class="node"><title>\\O3PO_Journal</title>
<polygon fill="none" stroke="black" points="462,-322 364,-322 364,-286 462,-286 462,-322"/>
<text text-anchor="middle" x="413" y="-301.2" font-family="Courier,monospace" font-size="11.00">O3PO_Journal</text>
</g>
<!-- \\O3PO_Arxiv -->
<g id="node28" class="node"><title>\\O3PO_Arxiv</title>
<polygon fill="none" stroke="black" points="455,-268 371,-268 371,-232 455,-232 455,-268"/>
<text text-anchor="middle" x="413" y="-247.2" font-family="Courier,monospace" font-size="11.00">O3PO_Arxiv</text>
</g>
<!-- \\O3PO_EmailTemplates -->
<g id="node29" class="node"><title>\\O3PO_EmailTemplates</title>
<polygon fill="none" stroke="black" points="485.5,-214 340.5,-214 340.5,-178 485.5,-178 485.5,-214"/>
<text text-anchor="middle" x="413" y="-193.2" font-family="Courier,monospace" font-size="11.00">O3PO_EmailTemplates</text>
</g>
<!-- \\O3PO_Ready2PublishStorage -->
<g id="node30" class="node"><title>\\O3PO_Ready2PublishStorage</title>
<polygon fill="none" stroke="black" points="505.5,-160 320.5,-160 320.5,-124 505.5,-124 505.5,-160"/>
<text text-anchor="middle" x="413" y="-139.2" font-family="Courier,monospace" font-size="11.00">O3PO_Ready2PublishStorage</text>
</g>
<!-- \\O3PO_Loader -->
<g id="node31" class="node"><title>\\O3PO_Loader</title>
<polygon fill="none" stroke="black" points="458.5,-106 367.5,-106 367.5,-70 458.5,-70 458.5,-106"/>
<text text-anchor="middle" x="413" y="-85.2" font-family="Courier,monospace" font-size="11.00">O3PO_Loader</text>
</g>
<!-- \\O3PO_Form -->
<g id="node32" class="node"><title>\\O3PO_Form</title>
<polygon fill="none" stroke="black" points="451.5,-52 374.5,-52 374.5,-16 451.5,-16 451.5,-52"/>
<text text-anchor="middle" x="413" y="-31.2" font-family="Courier,monospace" font-size="11.00">O3PO_Form</text>
</g>
</g>
</svg>
