<?xml version="1.0" encoding="UTF-8" standalone="no"?>
<!DOCTYPE svg PUBLIC "-//W3C//DTD SVG 1.1//EN"
 "http://www.w3.org/Graphics/SVG/1.1/DTD/svg11.dtd">
<!-- Generated by graphviz version 2.38.0 (20140413.2041)
 -->
<!-- Title: G Pages: 1 -->
<svg width="543pt" height="1662pt"
 viewBox="0.00 0.00 543.00 1662.00" xmlns="http://www.w3.org/2000/svg" xmlns:xlink="http://www.w3.org/1999/xlink">
<g id="graph0" class="graph" transform="scale(1 1) rotate(0) translate(4 1658)">
<title>G</title>
<polygon fill="white" stroke="none" points="-4,4 -4,-1658 539,-1658 539,4 -4,4"/>
<g id="clust1" class="cluster"><title>cluster_Global</title>
<path fill="none" stroke="gray" d="M20,-8C20,-8 515,-8 515,-8 521,-8 527,-14 527,-20 527,-20 527,-1634 527,-1634 527,-1640 521,-1646 515,-1646 515,-1646 20,-1646 20,-1646 14,-1646 8,-1640 8,-1634 8,-1634 8,-20 8,-20 8,-14 14,-8 20,-8"/>
<text text-anchor="middle" x="267.5" y="-1633.2" font-family="Times,serif" font-size="11.00" fill="gray">Global</text>
</g>
<!-- \\O3PO_Deactivator -->
<g id="node1" class="node"><title>\\O3PO_Deactivator</title>
<polygon fill="none" stroke="black" points="475.5,-1618 350.5,-1618 350.5,-1582 475.5,-1582 475.5,-1618"/>
<text text-anchor="middle" x="413" y="-1597.2" font-family="Courier,monospace" font-size="11.00">O3PO_Deactivator</text>
</g>
<!-- \\O3PO_Public -->
<g id="node2" class="node"><title>\\O3PO_Public</title>
<polygon fill="none" stroke="black" points="458.5,-1564 367.5,-1564 367.5,-1528 458.5,-1528 458.5,-1564"/>
<text text-anchor="middle" x="413" y="-1543.2" font-family="Courier,monospace" font-size="11.00">O3PO_Public</text>
</g>
<!-- \\O3PO_Doaj -->
<g id="node3" class="node"><title>\\O3PO_Doaj</title>
<polygon fill="none" stroke="black" points="451.5,-1510 374.5,-1510 374.5,-1474 451.5,-1474 451.5,-1510"/>
<text text-anchor="middle" x="413" y="-1489.2" font-family="Courier,monospace" font-size="11.00">O3PO_Doaj</text>
</g>
<!-- \\O3PO_Activator -->
<g id="node4" class="node"><title>\\O3PO_Activator</title>
<polygon fill="none" stroke="black" points="468.5,-1456 357.5,-1456 357.5,-1420 468.5,-1420 468.5,-1456"/>
<text text-anchor="middle" x="413" y="-1435.2" font-family="Courier,monospace" font-size="11.00">O3PO_Activator</text>
</g>
<!-- \\O3PO_Latex -->
<g id="node5" class="node"><title>\\O3PO_Latex</title>
<polygon fill="none" stroke="black" points="455,-1402 371,-1402 371,-1366 455,-1366 455,-1402"/>
<text text-anchor="middle" x="413" y="-1381.2" font-family="Courier,monospace" font-size="11.00">O3PO_Latex</text>
</g>
<!-- \\O3PO_Latex_Dictionary_Provider -->
<g id="node6" class="node"><title>\\O3PO_Latex_Dictionary_Provider</title>
<polygon fill="none" stroke="black" points="235,-1402 16,-1402 16,-1366 235,-1366 235,-1402"/>
<text text-anchor="middle" x="125.5" y="-1381.2" font-family="Courier,monospace" font-size="11.00">O3PO_Latex_Dictionary_Provider</text>
</g>
<!-- \\O3PO_Latex&#45;&gt;\\O3PO_Latex_Dictionary_Provider -->
<g id="edge1" class="edge"><title>\\O3PO_Latex&#45;&gt;\\O3PO_Latex_Dictionary_Provider</title>
<path fill="none" stroke="black" d="M370.791,-1384C337.843,-1384 289.932,-1384 245.251,-1384"/>
<polygon fill="none" stroke="black" points="245.176,-1380.5 235.176,-1384 245.176,-1387.5 245.176,-1380.5"/>
</g>
<!-- \\O3PO_ShortcodeTemplate -->
<g id="node7" class="node"><title>\\O3PO_ShortcodeTemplate</title>
<polygon fill="none" stroke="black" points="495.5,-1348 330.5,-1348 330.5,-1312 495.5,-1312 495.5,-1348"/>
<text text-anchor="middle" x="413" y="-1327.2" font-family="Courier,monospace" font-size="11.00">O3PO_ShortcodeTemplate</text>
</g>
<!-- \\O3PO_Ads -->
<g id="node8" class="node"><title>\\O3PO_Ads</title>
<polygon fill="none" stroke="black" points="448.5,-1294 377.5,-1294 377.5,-1258 448.5,-1258 448.5,-1294"/>
<text text-anchor="middle" x="413" y="-1273.2" font-family="Courier,monospace" font-size="11.00">O3PO_Ads</text>
</g>
<!-- \\O3PO_Crossref -->
<g id="node9" class="node"><title>\\O3PO_Crossref</title>
<polygon fill="none" stroke="black" points="465,-1240 361,-1240 361,-1204 465,-1204 465,-1240"/>
<text text-anchor="middle" x="413" y="-1219.2" font-family="Courier,monospace" font-size="11.00">O3PO_Crossref</text>
</g>
<!-- \\O3PO_PrimaryPublicationType -->
<g id="node10" class="node"><title>\\O3PO_PrimaryPublicationType</title>
<polygon fill="none" stroke="black" points="512.5,-1186 313.5,-1186 313.5,-1150 512.5,-1150 512.5,-1186"/>
<text text-anchor="middle" x="413" y="-1165.2" font-family="Courier,monospace" font-size="11.00">O3PO_PrimaryPublicationType</text>
</g>
<!-- \\O3PO_PublicationType -->
<g id="node15" class="node"><title>\\O3PO_PublicationType</title>
<polygon fill="none" stroke="black" points="201.5,-1105 49.5,-1105 49.5,-1069 201.5,-1069 201.5,-1105"/>
<text text-anchor="start" x="91.5" y="-1090.2" font-family="Courier,monospace" font-size="11.00">«abstract»</text>
<text text-anchor="start" x="57.5" y="-1078.2" font-family="Courier,monospace" font-size="11.00">O3PO_PublicationType</text>
</g>
<!-- \\O3PO_PrimaryPublicationType&#45;&gt;\\O3PO_PublicationType -->
<g id="edge2" class="edge"><title>\\O3PO_PrimaryPublicationType&#45;&gt;\\O3PO_PublicationType</title>
<path fill="none" stroke="black" d="M340.168,-1149.93C329.044,-1147.01 317.699,-1143.97 307,-1141 269.713,-1130.63 228.335,-1118.31 194.613,-1108.06"/>
<polygon fill="none" stroke="black" points="195.448,-1104.66 184.862,-1105.09 193.407,-1111.35 195.448,-1104.66"/>
</g>
<!-- \\O3PO_i18n -->
<g id="node11" class="node"><title>\\O3PO_i18n</title>
<polygon fill="none" stroke="black" points="451.5,-1132 374.5,-1132 374.5,-1096 451.5,-1096 451.5,-1132"/>
<text text-anchor="middle" x="413" y="-1111.2" font-family="Courier,monospace" font-size="11.00">O3PO_i18n</text>
</g>
<!-- \\O3PO_Bibentry -->
<g id="node12" class="node"><title>\\O3PO_Bibentry</title>
<polygon fill="none" stroke="black" points="465,-1078 361,-1078 361,-1042 465,-1042 465,-1078"/>
<text text-anchor="middle" x="413" y="-1057.2" font-family="Courier,monospace" font-size="11.00">O3PO_Bibentry</text>
</g>
<!-- \\O3PO_Singleton -->
<g id="node13" class="node"><title>\\O3PO_Singleton</title>
<polygon fill="none" stroke="black" points="181,-700 70,-700 70,-664 181,-664 181,-700"/>
<text text-anchor="middle" x="125.5" y="-679.2" font-family="Courier,monospace" font-size="11.00">O3PO_Singleton</text>
</g>
<!-- \\O3PO_Ready2PublishForm -->
<g id="node14" class="node"><title>\\O3PO_Ready2PublishForm</title>
<polygon fill="none" stroke="black" points="495.5,-916 330.5,-916 330.5,-880 495.5,-880 495.5,-916"/>
<text text-anchor="middle" x="413" y="-895.2" font-family="Courier,monospace" font-size="11.00">O3PO_Ready2PublishForm</text>
</g>
<!-- \\O3PO_PublicForm -->
<g id="node17" class="node"><title>\\O3PO_PublicForm</title>
<polygon fill="none" stroke="black" points="184.5,-916 66.5,-916 66.5,-880 184.5,-880 184.5,-916"/>
<text text-anchor="start" x="91.5" y="-901.2" font-family="Courier,monospace" font-size="11.00">«abstract»</text>
<text text-anchor="start" x="74.5" y="-889.2" font-family="Courier,monospace" font-size="11.00">O3PO_PublicForm</text>
</g>
<!-- \\O3PO_Ready2PublishForm&#45;&gt;\\O3PO_PublicForm -->
<g id="edge3" class="edge"><title>\\O3PO_Ready2PublishForm&#45;&gt;\\O3PO_PublicForm</title>
<path fill="none" stroke="black" d="M330.187,-898C287.351,-898 235.502,-898 194.837,-898"/>
<polygon fill="none" stroke="black" points="194.751,-894.5 184.751,-898 194.751,-901.5 194.751,-894.5"/>
</g>
<!-- \\O3PO_Buffer -->
<g id="node16" class="node"><title>\\O3PO_Buffer</title>
<polygon fill="none" stroke="black" points="458.5,-970 367.5,-970 367.5,-934 458.5,-934 458.5,-970"/>
<text text-anchor="middle" x="413" y="-949.2" font-family="Courier,monospace" font-size="11.00">O3PO_Buffer</text>
</g>
<!-- \\O3PO_SecondaryPublicationType -->
<g id="node18" class="node"><title>\\O3PO_SecondaryPublicationType</title>
<polygon fill="none" stroke="black" points="519,-1024 307,-1024 307,-988 519,-988 519,-1024"/>
<text text-anchor="middle" x="413" y="-1003.2" font-family="Courier,monospace" font-size="11.00">O3PO_SecondaryPublicationType</text>
</g>
<!-- \\O3PO_SecondaryPublicationType&#45;&gt;\\O3PO_PublicationType -->
<g id="edge4" class="edge"><title>\\O3PO_SecondaryPublicationType&#45;&gt;\\O3PO_PublicationType</title>
<path fill="none" stroke="black" d="M340.168,-1024.07C329.044,-1026.99 317.699,-1030.03 307,-1033 269.713,-1043.37 228.335,-1055.69 194.613,-1065.94"/>
<polygon fill="none" stroke="black" points="193.407,-1062.65 184.862,-1068.91 195.448,-1069.34 193.407,-1062.65"/>
</g>
<!-- \\O3PO_Plotter -->
<g id="node19" class="node"><title>\\O3PO_Plotter</title>
<polygon fill="none" stroke="black" points="462,-862 364,-862 364,-826 462,-826 462,-862"/>
<text text-anchor="middle" x="413" y="-841.2" font-family="Courier,monospace" font-size="11.00">O3PO_Plotter</text>
</g>
<!-- \\O3PO_Admin -->
<g id="node20" class="node"><title>\\O3PO_Admin</title>
<polygon fill="none" stroke="black" points="455,-808 371,-808 371,-772 455,-772 455,-808"/>
<text text-anchor="middle" x="413" y="-787.2" font-family="Courier,monospace" font-size="11.00">O3PO_Admin</text>
</g>
<!-- \\O3PO_Author -->
<g id="node21" class="node"><title>\\O3PO_Author</title>
<polygon fill="none" stroke="black" points="458.5,-754 367.5,-754 367.5,-718 458.5,-718 458.5,-754"/>
<text text-anchor="middle" x="413" y="-733.2" font-family="Courier,monospace" font-size="11.00">O3PO_Author</text>
</g>
<!-- \\O3PO_Settings -->
<g id="node22" class="node"><title>\\O3PO_Settings</title>
<polygon fill="none" stroke="black" points="465,-700 361,-700 361,-664 465,-664 465,-700"/>
<text text-anchor="middle" x="413" y="-679.2" font-family="Courier,monospace" font-size="11.00">O3PO_Settings</text>
</g>
<!-- \\O3PO_Settings&#45;&gt;\\O3PO_Singleton -->
<g id="edge5" class="edge"><title>\\O3PO_Settings&#45;&gt;\\O3PO_Singleton</title>
<path fill="none" stroke="black" d="M360.958,-682C313.593,-682 242.868,-682 191.487,-682"/>
<polygon fill="none" stroke="black" points="191.481,-678.5 181.481,-682 191.481,-685.5 191.481,-678.5"/>
</g>
<!-- \\O3PO_Ready2PublishDashboard -->
<g id="node23" class="node"><title>\\O3PO_Ready2PublishDashboard</title>
<polygon fill="none" stroke="black" points="512.5,-646 313.5,-646 313.5,-610 512.5,-610 512.5,-646"/>
<text text-anchor="middle" x="413" y="-625.2" font-family="Courier,monospace" font-size="11.00">O3PO_Ready2PublishDashboard</text>
</g>
<!-- \\O3PO_Relevanssi -->
<g id="node24" class="node"><title>\\O3PO_Relevanssi</title>
<polygon fill="none" stroke="black" points="472,-592 354,-592 354,-556 472,-556 472,-592"/>
<text text-anchor="middle" x="413" y="-571.2" font-family="Courier,monospace" font-size="11.00">O3PO_Relevanssi</text>
</g>
<!-- \\O3PO_Clockss -->
<g id="node25" class="node"><title>\\O3PO_Clockss</title>
<polygon fill="none" stroke="black" points="462,-538 364,-538 364,-502 462,-502 462,-538"/>
<text text-anchor="middle" x="413" y="-517.2" font-family="Courier,monospace" font-size="11.00">O3PO_Clockss</text>
</g>
<!-- \\O3PO_Utility -->
<g id="node26" class="node"><title>\\O3PO_Utility</title>
<polygon fill="none" stroke="black" points="462,-484 364,-484 364,-448 462,-448 462,-484"/>
<text text-anchor="middle" x="413" y="-463.2" font-family="Courier,monospace" font-size="11.00">O3PO_Utility</text>
</g>
<!-- \\O3PO -->
<g id="node27" class="node"><title>\\O3PO</title>
<polygon fill="none" stroke="black" points="440,-430 386,-430 386,-394 440,-394 440,-430"/>
<text text-anchor="middle" x="413" y="-409.2" font-family="Courier,monospace" font-size="11.00">O3PO</text>
</g>
<!-- \\O3PO_Environment -->
<g id="node28" class="node"><title>\\O3PO_Environment</title>
<polygon fill="none" stroke="black" points="475.5,-376 350.5,-376 350.5,-340 475.5,-340 475.5,-376"/>
<text text-anchor="middle" x="413" y="-355.2" font-family="Courier,monospace" font-size="11.00">O3PO_Environment</text>
</g>
<!-- \\O3PO_Journal -->
<g id="node29" class="node"><title>\\O3PO_Journal</title>
<polygon fill="none" stroke="black" points="462,-322 364,-322 364,-286 462,-286 462,-322"/>
<text text-anchor="middle" x="413" y="-301.2" font-family="Courier,monospace" font-size="11.00">O3PO_Journal</text>
</g>
<!-- \\O3PO_Arxiv -->
<g id="node30" class="node"><title>\\O3PO_Arxiv</title>
<polygon fill="none" stroke="black" points="455,-268 371,-268 371,-232 455,-232 455,-268"/>
<text text-anchor="middle" x="413" y="-247.2" font-family="Courier,monospace" font-size="11.00">O3PO_Arxiv</text>
</g>
<!-- \\O3PO_EmailTemplates -->
<g id="node31" class="node"><title>\\O3PO_EmailTemplates</title>
<polygon fill="none" stroke="black" points="485.5,-214 340.5,-214 340.5,-178 485.5,-178 485.5,-214"/>
<text text-anchor="middle" x="413" y="-193.2" font-family="Courier,monospace" font-size="11.00">O3PO_EmailTemplates</text>
</g>
<!-- \\O3PO_Loader -->
<g id="node32" class="node"><title>\\O3PO_Loader</title>
<polygon fill="none" stroke="black" points="458.5,-160 367.5,-160 367.5,-124 458.5,-124 458.5,-160"/>
<text text-anchor="middle" x="413" y="-139.2" font-family="Courier,monospace" font-size="11.00">O3PO_Loader</text>
</g>
<!-- \\O3PO_Ready2PublishStorage -->
<g id="node33" class="node"><title>\\O3PO_Ready2PublishStorage</title>
<polygon fill="none" stroke="black" points="505.5,-106 320.5,-106 320.5,-70 505.5,-70 505.5,-106"/>
<text text-anchor="middle" x="413" y="-85.2" font-family="Courier,monospace" font-size="11.00">O3PO_Ready2PublishStorage</text>
</g>
<!-- \\O3PO_Form -->
<g id="node34" class="node"><title>\\O3PO_Form</title>
<polygon fill="none" stroke="black" points="451.5,-52 374.5,-52 374.5,-16 451.5,-16 451.5,-52"/>
<text text-anchor="middle" x="413" y="-31.2" font-family="Courier,monospace" font-size="11.00">O3PO_Form</text>
</g>
</g>
</svg>
