<?xml version="1.0" encoding="UTF-8" standalone="no"?>
<!DOCTYPE svg PUBLIC "-//W3C//DTD SVG 1.1//EN"
 "http://www.w3.org/Graphics/SVG/1.1/DTD/svg11.dtd">
<!-- Generated by graphviz version 2.38.0 (20140413.2041)
 -->
<!-- Title: G Pages: 1 -->
<svg width="543pt" height="1068pt"
 viewBox="0.00 0.00 543.00 1068.00" xmlns="http://www.w3.org/2000/svg" xmlns:xlink="http://www.w3.org/1999/xlink">
<g id="graph0" class="graph" transform="scale(1 1) rotate(0) translate(4 1064)">
<title>G</title>
<polygon fill="white" stroke="none" points="-4,4 -4,-1064 539,-1064 539,4 -4,4"/>
<g id="clust1" class="cluster"><title>cluster_Global</title>
<path fill="none" stroke="gray" d="M20,-8C20,-8 515,-8 515,-8 521,-8 527,-14 527,-20 527,-20 527,-1040 527,-1040 527,-1046 521,-1052 515,-1052 515,-1052 20,-1052 20,-1052 14,-1052 8,-1046 8,-1040 8,-1040 8,-20 8,-20 8,-14 14,-8 20,-8"/>
<text text-anchor="middle" x="267.5" y="-1039.2" font-family="Times,serif" font-size="11.00" fill="gray">Global</text>
</g>
<!-- \\O3PO_Deactivator -->
<g id="node1" class="node"><title>\\O3PO_Deactivator</title>
<polygon fill="none" stroke="black" points="475.5,-1024 350.5,-1024 350.5,-988 475.5,-988 475.5,-1024"/>
<text text-anchor="middle" x="413" y="-1003.2" font-family="Courier,monospace" font-size="11.00">O3PO_Deactivator</text>
</g>
<!-- \\O3PO_Public -->
<g id="node2" class="node"><title>\\O3PO_Public</title>
<polygon fill="none" stroke="black" points="458.5,-970 367.5,-970 367.5,-934 458.5,-934 458.5,-970"/>
<text text-anchor="middle" x="413" y="-949.2" font-family="Courier,monospace" font-size="11.00">O3PO_Public</text>
</g>
<!-- \\O3PO_Doaj -->
<g id="node3" class="node"><title>\\O3PO_Doaj</title>
<polygon fill="none" stroke="black" points="451.5,-916 374.5,-916 374.5,-880 451.5,-880 451.5,-916"/>
<text text-anchor="middle" x="413" y="-895.2" font-family="Courier,monospace" font-size="11.00">O3PO_Doaj</text>
</g>
<!-- \\O3PO_Activator -->
<g id="node4" class="node"><title>\\O3PO_Activator</title>
<polygon fill="none" stroke="black" points="468.5,-862 357.5,-862 357.5,-826 468.5,-826 468.5,-862"/>
<text text-anchor="middle" x="413" y="-841.2" font-family="Courier,monospace" font-size="11.00">O3PO_Activator</text>
</g>
<!-- \\O3PO_Latex -->
<g id="node5" class="node"><title>\\O3PO_Latex</title>
<polygon fill="none" stroke="black" points="455,-808 371,-808 371,-772 455,-772 455,-808"/>
<text text-anchor="middle" x="413" y="-787.2" font-family="Courier,monospace" font-size="11.00">O3PO_Latex</text>
</g>
<!-- \\O3PO_Latex_Dictionary_Provider -->
<g id="node6" class="node"><title>\\O3PO_Latex_Dictionary_Provider</title>
<polygon fill="none" stroke="black" points="235,-808 16,-808 16,-772 235,-772 235,-808"/>
<text text-anchor="middle" x="125.5" y="-787.2" font-family="Courier,monospace" font-size="11.00">O3PO_Latex_Dictionary_Provider</text>
</g>
<!-- \\O3PO_Latex&#45;&gt;\\O3PO_Latex_Dictionary_Provider -->
<g id="edge1" class="edge"><title>\\O3PO_Latex&#45;&gt;\\O3PO_Latex_Dictionary_Provider</title>
<path fill="none" stroke="black" d="M370.791,-790C337.843,-790 289.932,-790 245.251,-790"/>
<polygon fill="none" stroke="black" points="245.176,-786.5 235.176,-790 245.176,-793.5 245.176,-786.5"/>
</g>
<!-- \\O3PO_Crossref -->
<g id="node7" class="node"><title>\\O3PO_Crossref</title>
<polygon fill="none" stroke="black" points="465,-754 361,-754 361,-718 465,-718 465,-754"/>
<text text-anchor="middle" x="413" y="-733.2" font-family="Courier,monospace" font-size="11.00">O3PO_Crossref</text>
</g>
<!-- \\O3PO_PrimaryPublicationType -->
<g id="node8" class="node"><title>\\O3PO_PrimaryPublicationType</title>
<polygon fill="none" stroke="black" points="512.5,-700 313.5,-700 313.5,-664 512.5,-664 512.5,-700"/>
<text text-anchor="middle" x="413" y="-679.2" font-family="Courier,monospace" font-size="11.00">O3PO_PrimaryPublicationType</text>
</g>
<!-- \\O3PO_PublicationType -->
<g id="node11" class="node"><title>\\O3PO_PublicationType</title>
<polygon fill="none" stroke="black" points="201.5,-646 49.5,-646 49.5,-610 201.5,-610 201.5,-646"/>
<text text-anchor="start" x="91.5" y="-631.2" font-family="Courier,monospace" font-size="11.00">«abstract»</text>
<text text-anchor="start" x="57.5" y="-619.2" font-family="Courier,monospace" font-size="11.00">O3PO_PublicationType</text>
</g>
<!-- \\O3PO_PrimaryPublicationType&#45;&gt;\\O3PO_PublicationType -->
<g id="edge2" class="edge"><title>\\O3PO_PrimaryPublicationType&#45;&gt;\\O3PO_PublicationType</title>
<path fill="none" stroke="black" d="M316.536,-663.944C282.6,-657.525 244.646,-650.346 211.632,-644.102"/>
<polygon fill="none" stroke="black" points="212.031,-640.616 201.555,-642.196 210.73,-647.494 212.031,-640.616"/>
</g>
<!-- \\O3PO_i18n -->
<g id="node9" class="node"><title>\\O3PO_i18n</title>
<polygon fill="none" stroke="black" points="451.5,-646 374.5,-646 374.5,-610 451.5,-610 451.5,-646"/>
<text text-anchor="middle" x="413" y="-625.2" font-family="Courier,monospace" font-size="11.00">O3PO_i18n</text>
</g>
<!-- \\O3PO_Singleton -->
<g id="node10" class="node"><title>\\O3PO_Singleton</title>
<polygon fill="none" stroke="black" points="181,-484 70,-484 70,-448 181,-448 181,-484"/>
<text text-anchor="middle" x="125.5" y="-463.2" font-family="Courier,monospace" font-size="11.00">O3PO_Singleton</text>
</g>
<!-- \\O3PO_SecondaryPublicationType -->
<g id="node12" class="node"><title>\\O3PO_SecondaryPublicationType</title>
<polygon fill="none" stroke="black" points="519,-592 307,-592 307,-556 519,-556 519,-592"/>
<text text-anchor="middle" x="413" y="-571.2" font-family="Courier,monospace" font-size="11.00">O3PO_SecondaryPublicationType</text>
</g>
<!-- \\O3PO_SecondaryPublicationType&#45;&gt;\\O3PO_PublicationType -->
<g id="edge3" class="edge"><title>\\O3PO_SecondaryPublicationType&#45;&gt;\\O3PO_PublicationType</title>
<path fill="none" stroke="black" d="M316.536,-592.056C282.6,-598.475 244.646,-605.654 211.632,-611.898"/>
<polygon fill="none" stroke="black" points="210.73,-608.506 201.555,-613.804 212.031,-615.384 210.73,-608.506"/>
</g>
<!-- \\O3PO_Admin -->
<g id="node13" class="node"><title>\\O3PO_Admin</title>
<polygon fill="none" stroke="black" points="455,-538 371,-538 371,-502 455,-502 455,-538"/>
<text text-anchor="middle" x="413" y="-517.2" font-family="Courier,monospace" font-size="11.00">O3PO_Admin</text>
</g>
<!-- \\O3PO_Settings -->
<g id="node14" class="node"><title>\\O3PO_Settings</title>
<polygon fill="none" stroke="black" points="465,-484 361,-484 361,-448 465,-448 465,-484"/>
<text text-anchor="middle" x="413" y="-463.2" font-family="Courier,monospace" font-size="11.00">O3PO_Settings</text>
</g>
<!-- \\O3PO_Settings&#45;&gt;\\O3PO_Singleton -->
<g id="edge4" class="edge"><title>\\O3PO_Settings&#45;&gt;\\O3PO_Singleton</title>
<path fill="none" stroke="black" d="M360.958,-466C313.593,-466 242.868,-466 191.487,-466"/>
<polygon fill="none" stroke="black" points="191.481,-462.5 181.481,-466 191.481,-469.5 191.481,-462.5"/>
</g>
<!-- \\O3PO_Clockss -->
<g id="node15" class="node"><title>\\O3PO_Clockss</title>
<polygon fill="none" stroke="black" points="462,-430 364,-430 364,-394 462,-394 462,-430"/>
<text text-anchor="middle" x="413" y="-409.2" font-family="Courier,monospace" font-size="11.00">O3PO_Clockss</text>
</g>
<!-- \\O3PO_Utility -->
<g id="node16" class="node"><title>\\O3PO_Utility</title>
<polygon fill="none" stroke="black" points="462,-376 364,-376 364,-340 462,-340 462,-376"/>
<text text-anchor="middle" x="413" y="-355.2" font-family="Courier,monospace" font-size="11.00">O3PO_Utility</text>
</g>
<!-- \\O3PO -->
<g id="node17" class="node"><title>\\O3PO</title>
<polygon fill="none" stroke="black" points="440,-322 386,-322 386,-286 440,-286 440,-322"/>
<text text-anchor="middle" x="413" y="-301.2" font-family="Courier,monospace" font-size="11.00">O3PO</text>
</g>
<!-- \\O3PO_Environment -->
<g id="node18" class="node"><title>\\O3PO_Environment</title>
<polygon fill="none" stroke="black" points="475.5,-268 350.5,-268 350.5,-232 475.5,-232 475.5,-268"/>
<text text-anchor="middle" x="413" y="-247.2" font-family="Courier,monospace" font-size="11.00">O3PO_Environment</text>
</g>
<!-- \\O3PO_Journal -->
<g id="node19" class="node"><title>\\O3PO_Journal</title>
<polygon fill="none" stroke="black" points="462,-214 364,-214 364,-178 462,-178 462,-214"/>
<text text-anchor="middle" x="413" y="-193.2" font-family="Courier,monospace" font-size="11.00">O3PO_Journal</text>
</g>
<!-- \\O3PO_Arxiv -->
<g id="node20" class="node"><title>\\O3PO_Arxiv</title>
<polygon fill="none" stroke="black" points="455,-160 371,-160 371,-124 455,-124 455,-160"/>
<text text-anchor="middle" x="413" y="-139.2" font-family="Courier,monospace" font-size="11.00">O3PO_Arxiv</text>
</g>
<!-- \\O3PO_EmailTemplates -->
<g id="node21" class="node"><title>\\O3PO_EmailTemplates</title>
<polygon fill="none" stroke="black" points="485.5,-106 340.5,-106 340.5,-70 485.5,-70 485.5,-106"/>
<text text-anchor="middle" x="413" y="-85.2" font-family="Courier,monospace" font-size="11.00">O3PO_EmailTemplates</text>
</g>
<!-- \\O3PO_Loader -->
<g id="node22" class="node"><title>\\O3PO_Loader</title>
<polygon fill="none" stroke="black" points="458.5,-52 367.5,-52 367.5,-16 458.5,-16 458.5,-52"/>
<text text-anchor="middle" x="413" y="-31.2" font-family="Courier,monospace" font-size="11.00">O3PO_Loader</text>
</g>
</g>
</svg>
