<?xml version="1.0" encoding="UTF-8" standalone="no"?>
<!DOCTYPE svg PUBLIC "-//W3C//DTD SVG 1.1//EN"
 "http://www.w3.org/Graphics/SVG/1.1/DTD/svg11.dtd">
<!-- Generated by graphviz version 2.38.0 (20140413.2041)
 -->
<!-- Title: G Pages: 1 -->
<svg width="543pt" height="798pt"
 viewBox="0.00 0.00 543.00 798.00" xmlns="http://www.w3.org/2000/svg" xmlns:xlink="http://www.w3.org/1999/xlink">
<g id="graph0" class="graph" transform="scale(1 1) rotate(0) translate(4 794)">
<title>G</title>
<polygon fill="white" stroke="none" points="-4,4 -4,-794 539,-794 539,4 -4,4"/>
<g id="clust1" class="cluster"><title>cluster_Global</title>
<path fill="none" stroke="gray" d="M20,-8C20,-8 515,-8 515,-8 521,-8 527,-14 527,-20 527,-20 527,-770 527,-770 527,-776 521,-782 515,-782 515,-782 20,-782 20,-782 14,-782 8,-776 8,-770 8,-770 8,-20 8,-20 8,-14 14,-8 20,-8"/>
<text text-anchor="middle" x="267.5" y="-769.2" font-family="Times,serif" font-size="11.00" fill="gray">Global</text>
</g>
<!-- \\O3PO_Deactivator -->
<g id="node1" class="node"><title>\\O3PO_Deactivator</title>
<polygon fill="none" stroke="black" points="475.5,-754 350.5,-754 350.5,-718 475.5,-718 475.5,-754"/>
<text text-anchor="middle" x="413" y="-733.2" font-family="Courier,monospace" font-size="11.00">O3PO_Deactivator</text>
</g>
<!-- \\O3PO_Public -->
<g id="node2" class="node"><title>\\O3PO_Public</title>
<polygon fill="none" stroke="black" points="458.5,-700 367.5,-700 367.5,-664 458.5,-664 458.5,-700"/>
<text text-anchor="middle" x="413" y="-679.2" font-family="Courier,monospace" font-size="11.00">O3PO_Public</text>
</g>
<!-- \\O3PO_Activator -->
<g id="node3" class="node"><title>\\O3PO_Activator</title>
<polygon fill="none" stroke="black" points="468.5,-646 357.5,-646 357.5,-610 468.5,-610 468.5,-646"/>
<text text-anchor="middle" x="413" y="-625.2" font-family="Courier,monospace" font-size="11.00">O3PO_Activator</text>
</g>
<!-- \\O3PO_Latex -->
<g id="node4" class="node"><title>\\O3PO_Latex</title>
<polygon fill="none" stroke="black" points="455,-592 371,-592 371,-556 455,-556 455,-592"/>
<text text-anchor="middle" x="413" y="-571.2" font-family="Courier,monospace" font-size="11.00">O3PO_Latex</text>
</g>
<!-- \\O3PO_Latex_Dictionary_Provider -->
<g id="node5" class="node"><title>\\O3PO_Latex_Dictionary_Provider</title>
<polygon fill="none" stroke="black" points="235,-592 16,-592 16,-556 235,-556 235,-592"/>
<text text-anchor="middle" x="125.5" y="-571.2" font-family="Courier,monospace" font-size="11.00">O3PO_Latex_Dictionary_Provider</text>
</g>
<!-- \\O3PO_Latex&#45;&gt;\\O3PO_Latex_Dictionary_Provider -->
<g id="edge1" class="edge"><title>\\O3PO_Latex&#45;&gt;\\O3PO_Latex_Dictionary_Provider</title>
<path fill="none" stroke="black" d="M370.791,-574C337.843,-574 289.932,-574 245.251,-574"/>
<polygon fill="none" stroke="black" points="245.176,-570.5 235.176,-574 245.176,-577.5 245.176,-570.5"/>
</g>
<!-- \\O3PO_PrimaryPublicationType -->
<g id="node6" class="node"><title>\\O3PO_PrimaryPublicationType</title>
<polygon fill="none" stroke="black" points="512.5,-538 313.5,-538 313.5,-502 512.5,-502 512.5,-538"/>
<text text-anchor="middle" x="413" y="-517.2" font-family="Courier,monospace" font-size="11.00">O3PO_PrimaryPublicationType</text>
</g>
<!-- \\O3PO_PublicationType -->
<g id="node9" class="node"><title>\\O3PO_PublicationType</title>
<polygon fill="none" stroke="black" points="201.5,-484 49.5,-484 49.5,-448 201.5,-448 201.5,-484"/>
<text text-anchor="start" x="91.5" y="-469.2" font-family="Courier,monospace" font-size="11.00">«abstract»</text>
<text text-anchor="start" x="57.5" y="-457.2" font-family="Courier,monospace" font-size="11.00">O3PO_PublicationType</text>
</g>
<!-- \\O3PO_PrimaryPublicationType&#45;&gt;\\O3PO_PublicationType -->
<g id="edge2" class="edge"><title>\\O3PO_PrimaryPublicationType&#45;&gt;\\O3PO_PublicationType</title>
<path fill="none" stroke="black" d="M316.536,-501.944C282.6,-495.525 244.646,-488.346 211.632,-482.102"/>
<polygon fill="none" stroke="black" points="212.031,-478.616 201.555,-480.196 210.73,-485.494 212.031,-478.616"/>
</g>
<!-- \\O3PO_i18n -->
<g id="node7" class="node"><title>\\O3PO_i18n</title>
<polygon fill="none" stroke="black" points="451.5,-484 374.5,-484 374.5,-448 451.5,-448 451.5,-484"/>
<text text-anchor="middle" x="413" y="-463.2" font-family="Courier,monospace" font-size="11.00">O3PO_i18n</text>
</g>
<!-- \\O3PO_Singleton -->
<g id="node8" class="node"><title>\\O3PO_Singleton</title>
<polygon fill="none" stroke="black" points="181,-322 70,-322 70,-286 181,-286 181,-322"/>
<text text-anchor="middle" x="125.5" y="-301.2" font-family="Courier,monospace" font-size="11.00">O3PO_Singleton</text>
</g>
<!-- \\O3PO_SecondaryPublicationType -->
<g id="node10" class="node"><title>\\O3PO_SecondaryPublicationType</title>
<polygon fill="none" stroke="black" points="519,-430 307,-430 307,-394 519,-394 519,-430"/>
<text text-anchor="middle" x="413" y="-409.2" font-family="Courier,monospace" font-size="11.00">O3PO_SecondaryPublicationType</text>
</g>
<!-- \\O3PO_SecondaryPublicationType&#45;&gt;\\O3PO_PublicationType -->
<g id="edge3" class="edge"><title>\\O3PO_SecondaryPublicationType&#45;&gt;\\O3PO_PublicationType</title>
<path fill="none" stroke="black" d="M316.536,-430.056C282.6,-436.475 244.646,-443.654 211.632,-449.898"/>
<polygon fill="none" stroke="black" points="210.73,-446.506 201.555,-451.804 212.031,-453.384 210.73,-446.506"/>
</g>
<!-- \\O3PO_Admin -->
<g id="node11" class="node"><title>\\O3PO_Admin</title>
<polygon fill="none" stroke="black" points="455,-376 371,-376 371,-340 455,-340 455,-376"/>
<text text-anchor="middle" x="413" y="-355.2" font-family="Courier,monospace" font-size="11.00">O3PO_Admin</text>
</g>
<!-- \\O3PO_Settings -->
<g id="node12" class="node"><title>\\O3PO_Settings</title>
<polygon fill="none" stroke="black" points="465,-322 361,-322 361,-286 465,-286 465,-322"/>
<text text-anchor="middle" x="413" y="-301.2" font-family="Courier,monospace" font-size="11.00">O3PO_Settings</text>
</g>
<!-- \\O3PO_Settings&#45;&gt;\\O3PO_Singleton -->
<g id="edge4" class="edge"><title>\\O3PO_Settings&#45;&gt;\\O3PO_Singleton</title>
<path fill="none" stroke="black" d="M360.958,-304C313.593,-304 242.868,-304 191.487,-304"/>
<polygon fill="none" stroke="black" points="191.481,-300.5 181.481,-304 191.481,-307.5 191.481,-300.5"/>
</g>
<!-- \\O3PO_Utility -->
<g id="node13" class="node"><title>\\O3PO_Utility</title>
<polygon fill="none" stroke="black" points="462,-268 364,-268 364,-232 462,-232 462,-268"/>
<text text-anchor="middle" x="413" y="-247.2" font-family="Courier,monospace" font-size="11.00">O3PO_Utility</text>
</g>
<!-- \\O3PO -->
<g id="node14" class="node"><title>\\O3PO</title>
<polygon fill="none" stroke="black" points="440,-214 386,-214 386,-178 440,-178 440,-214"/>
<text text-anchor="middle" x="413" y="-193.2" font-family="Courier,monospace" font-size="11.00">O3PO</text>
</g>
<!-- \\O3PO_Environment -->
<g id="node15" class="node"><title>\\O3PO_Environment</title>
<polygon fill="none" stroke="black" points="475.5,-160 350.5,-160 350.5,-124 475.5,-124 475.5,-160"/>
<text text-anchor="middle" x="413" y="-139.2" font-family="Courier,monospace" font-size="11.00">O3PO_Environment</text>
</g>
<!-- \\O3PO_Journal -->
<g id="node16" class="node"><title>\\O3PO_Journal</title>
<polygon fill="none" stroke="black" points="462,-106 364,-106 364,-70 462,-70 462,-106"/>
<text text-anchor="middle" x="413" y="-85.2" font-family="Courier,monospace" font-size="11.00">O3PO_Journal</text>
</g>
<!-- \\O3PO_Loader -->
<g id="node17" class="node"><title>\\O3PO_Loader</title>
<polygon fill="none" stroke="black" points="458.5,-52 367.5,-52 367.5,-16 458.5,-16 458.5,-52"/>
<text text-anchor="middle" x="413" y="-31.2" font-family="Courier,monospace" font-size="11.00">O3PO_Loader</text>
</g>
</g>
</svg>
