<?xml version="1.0" encoding="UTF-8" standalone="no"?>
<!DOCTYPE svg PUBLIC "-//W3C//DTD SVG 1.1//EN"
 "http://www.w3.org/Graphics/SVG/1.1/DTD/svg11.dtd">
<!-- Generated by graphviz version 2.38.0 (20140413.2041)
 -->
<!-- Title: G Pages: 1 -->
<svg width="543pt" height="798pt"
 viewBox="0.00 0.00 543.00 798.00" xmlns="http://www.w3.org/2000/svg" xmlns:xlink="http://www.w3.org/1999/xlink">
<g id="graph0" class="graph" transform="scale(1 1) rotate(0) translate(4 794)">
<title>G</title>
<polygon fill="white" stroke="none" points="-4,4 -4,-794 539,-794 539,4 -4,4"/>
<g id="clust1" class="cluster"><title>cluster_Global</title>
<path fill="none" stroke="gray" d="M20,-8C20,-8 515,-8 515,-8 521,-8 527,-14 527,-20 527,-20 527,-770 527,-770 527,-776 521,-782 515,-782 515,-782 20,-782 20,-782 14,-782 8,-776 8,-770 8,-770 8,-20 8,-20 8,-14 14,-8 20,-8"/>
<text text-anchor="middle" x="267.5" y="-769.2" font-family="Times,serif" font-size="11.00" fill="gray">Global</text>
</g>
<!-- \\O3PO_Admin -->
<g id="node1" class="node"><title>\\O3PO_Admin</title>
<polygon fill="none" stroke="black" points="455,-754 371,-754 371,-718 455,-718 455,-754"/>
<text text-anchor="middle" x="413" y="-733.2" font-family="Courier,monospace" font-size="11.00">O3PO_Admin</text>
</g>
<!-- \\O3PO_Activator -->
<g id="node2" class="node"><title>\\O3PO_Activator</title>
<polygon fill="none" stroke="black" points="468.5,-700 357.5,-700 357.5,-664 468.5,-664 468.5,-700"/>
<text text-anchor="middle" x="413" y="-679.2" font-family="Courier,monospace" font-size="11.00">O3PO_Activator</text>
</g>
<!-- \\O3PO_Deactivator -->
<g id="node3" class="node"><title>\\O3PO_Deactivator</title>
<polygon fill="none" stroke="black" points="475.5,-646 350.5,-646 350.5,-610 475.5,-610 475.5,-646"/>
<text text-anchor="middle" x="413" y="-625.2" font-family="Courier,monospace" font-size="11.00">O3PO_Deactivator</text>
</g>
<!-- \\O3PO_Environment -->
<g id="node4" class="node"><title>\\O3PO_Environment</title>
<polygon fill="none" stroke="black" points="475.5,-592 350.5,-592 350.5,-556 475.5,-556 475.5,-592"/>
<text text-anchor="middle" x="413" y="-571.2" font-family="Courier,monospace" font-size="11.00">O3PO_Environment</text>
</g>
<!-- \\O3PO_i18n -->
<g id="node5" class="node"><title>\\O3PO_i18n</title>
<polygon fill="none" stroke="black" points="451.5,-538 374.5,-538 374.5,-502 451.5,-502 451.5,-538"/>
<text text-anchor="middle" x="413" y="-517.2" font-family="Courier,monospace" font-size="11.00">O3PO_i18n</text>
</g>
<!-- \\O3PO_Journal -->
<g id="node6" class="node"><title>\\O3PO_Journal</title>
<polygon fill="none" stroke="black" points="462,-484 364,-484 364,-448 462,-448 462,-484"/>
<text text-anchor="middle" x="413" y="-463.2" font-family="Courier,monospace" font-size="11.00">O3PO_Journal</text>
</g>
<!-- \\O3PO_Latex -->
<g id="node7" class="node"><title>\\O3PO_Latex</title>
<polygon fill="none" stroke="black" points="455,-430 371,-430 371,-394 455,-394 455,-430"/>
<text text-anchor="middle" x="413" y="-409.2" font-family="Courier,monospace" font-size="11.00">O3PO_Latex</text>
</g>
<!-- \\O3PO_Latex_Dictionary_Provider -->
<g id="node8" class="node"><title>\\O3PO_Latex_Dictionary_Provider</title>
<polygon fill="none" stroke="black" points="235,-430 16,-430 16,-394 235,-394 235,-430"/>
<text text-anchor="middle" x="125.5" y="-409.2" font-family="Courier,monospace" font-size="11.00">O3PO_Latex_Dictionary_Provider</text>
</g>
<!-- \\O3PO_Latex&#45;&gt;\\O3PO_Latex_Dictionary_Provider -->
<g id="edge1" class="edge"><title>\\O3PO_Latex&#45;&gt;\\O3PO_Latex_Dictionary_Provider</title>
<path fill="none" stroke="black" d="M370.791,-412C337.843,-412 289.932,-412 245.251,-412"/>
<polygon fill="none" stroke="black" points="245.176,-408.5 235.176,-412 245.176,-415.5 245.176,-408.5"/>
</g>
<!-- \\O3PO_Loader -->
<g id="node9" class="node"><title>\\O3PO_Loader</title>
<polygon fill="none" stroke="black" points="458.5,-376 367.5,-376 367.5,-340 458.5,-340 458.5,-376"/>
<text text-anchor="middle" x="413" y="-355.2" font-family="Courier,monospace" font-size="11.00">O3PO_Loader</text>
</g>
<!-- \\O3PO -->
<g id="node10" class="node"><title>\\O3PO</title>
<polygon fill="none" stroke="black" points="440,-322 386,-322 386,-286 440,-286 440,-322"/>
<text text-anchor="middle" x="413" y="-301.2" font-family="Courier,monospace" font-size="11.00">O3PO</text>
</g>
<!-- \\O3PO_Settings -->
<g id="node11" class="node"><title>\\O3PO_Settings</title>
<polygon fill="none" stroke="black" points="465,-268 361,-268 361,-232 465,-232 465,-268"/>
<text text-anchor="middle" x="413" y="-247.2" font-family="Courier,monospace" font-size="11.00">O3PO_Settings</text>
</g>
<!-- \\O3PO_Singleton -->
<g id="node12" class="node"><title>\\O3PO_Singleton</title>
<polygon fill="none" stroke="black" points="181,-268 70,-268 70,-232 181,-232 181,-268"/>
<text text-anchor="middle" x="125.5" y="-247.2" font-family="Courier,monospace" font-size="11.00">O3PO_Singleton</text>
</g>
<!-- \\O3PO_Settings&#45;&gt;\\O3PO_Singleton -->
<g id="edge2" class="edge"><title>\\O3PO_Settings&#45;&gt;\\O3PO_Singleton</title>
<path fill="none" stroke="black" d="M360.958,-250C313.593,-250 242.868,-250 191.487,-250"/>
<polygon fill="none" stroke="black" points="191.481,-246.5 181.481,-250 191.481,-253.5 191.481,-246.5"/>
</g>
<!-- \\O3PO_Utility -->
<g id="node13" class="node"><title>\\O3PO_Utility</title>
<polygon fill="none" stroke="black" points="462,-214 364,-214 364,-178 462,-178 462,-214"/>
<text text-anchor="middle" x="413" y="-193.2" font-family="Courier,monospace" font-size="11.00">O3PO_Utility</text>
</g>
<!-- \\O3PO_PrimaryPublicationType -->
<g id="node14" class="node"><title>\\O3PO_PrimaryPublicationType</title>
<polygon fill="none" stroke="black" points="512.5,-160 313.5,-160 313.5,-124 512.5,-124 512.5,-160"/>
<text text-anchor="middle" x="413" y="-139.2" font-family="Courier,monospace" font-size="11.00">O3PO_PrimaryPublicationType</text>
</g>
<!-- \\O3PO_PublicationType -->
<g id="node15" class="node"><title>\\O3PO_PublicationType</title>
<polygon fill="none" stroke="black" points="201.5,-133 49.5,-133 49.5,-97 201.5,-97 201.5,-133"/>
<text text-anchor="start" x="91.5" y="-118.2" font-family="Courier,monospace" font-size="11.00">«abstract»</text>
<text text-anchor="start" x="57.5" y="-106.2" font-family="Courier,monospace" font-size="11.00">O3PO_PublicationType</text>
</g>
<!-- \\O3PO_PrimaryPublicationType&#45;&gt;\\O3PO_PublicationType -->
<g id="edge3" class="edge"><title>\\O3PO_PrimaryPublicationType&#45;&gt;\\O3PO_PublicationType</title>
<path fill="none" stroke="black" d="M313.347,-132.67C280.333,-129.548 243.83,-126.096 211.912,-123.078"/>
<polygon fill="none" stroke="black" points="212.006,-119.571 201.721,-122.114 211.347,-126.54 212.006,-119.571"/>
</g>
<!-- \\O3PO_SecondaryPublicationType -->
<g id="node16" class="node"><title>\\O3PO_SecondaryPublicationType</title>
<polygon fill="none" stroke="black" points="519,-106 307,-106 307,-70 519,-70 519,-106"/>
<text text-anchor="middle" x="413" y="-85.2" font-family="Courier,monospace" font-size="11.00">O3PO_SecondaryPublicationType</text>
</g>
<!-- \\O3PO_SecondaryPublicationType&#45;&gt;\\O3PO_PublicationType -->
<g id="edge4" class="edge"><title>\\O3PO_SecondaryPublicationType&#45;&gt;\\O3PO_PublicationType</title>
<path fill="none" stroke="black" d="M306.907,-97.9388C275.623,-100.897 241.741,-104.102 211.878,-106.926"/>
<polygon fill="none" stroke="black" points="211.54,-103.442 201.914,-107.868 212.199,-110.411 211.54,-103.442"/>
</g>
<!-- \\O3PO_Public -->
<g id="node17" class="node"><title>\\O3PO_Public</title>
<polygon fill="none" stroke="black" points="458.5,-52 367.5,-52 367.5,-16 458.5,-16 458.5,-52"/>
<text text-anchor="middle" x="413" y="-31.2" font-family="Courier,monospace" font-size="11.00">O3PO_Public</text>
</g>
</g>
</svg>
