<?xml version="1.0" encoding="UTF-8" standalone="no"?>
<!DOCTYPE svg PUBLIC "-//W3C//DTD SVG 1.1//EN"
 "http://www.w3.org/Graphics/SVG/1.1/DTD/svg11.dtd">
<!-- Generated by graphviz version 2.38.0 (20140413.2041)
 -->
<!-- Title: G Pages: 1 -->
<svg width="543pt" height="1392pt"
 viewBox="0.00 0.00 543.00 1392.00" xmlns="http://www.w3.org/2000/svg" xmlns:xlink="http://www.w3.org/1999/xlink">
<g id="graph0" class="graph" transform="scale(1 1) rotate(0) translate(4 1388)">
<title>G</title>
<polygon fill="white" stroke="none" points="-4,4 -4,-1388 539,-1388 539,4 -4,4"/>
<g id="clust1" class="cluster"><title>cluster_Global</title>
<path fill="none" stroke="gray" d="M20,-8C20,-8 515,-8 515,-8 521,-8 527,-14 527,-20 527,-20 527,-1364 527,-1364 527,-1370 521,-1376 515,-1376 515,-1376 20,-1376 20,-1376 14,-1376 8,-1370 8,-1364 8,-1364 8,-20 8,-20 8,-14 14,-8 20,-8"/>
<text text-anchor="middle" x="267.5" y="-1363.2" font-family="Times,serif" font-size="11.00" fill="gray">Global</text>
</g>
<!-- \\O3PO_Deactivator -->
<g id="node1" class="node"><title>\\O3PO_Deactivator</title>
<polygon fill="none" stroke="black" points="475.5,-1348 350.5,-1348 350.5,-1312 475.5,-1312 475.5,-1348"/>
<text text-anchor="middle" x="413" y="-1327.2" font-family="Courier,monospace" font-size="11.00">O3PO_Deactivator</text>
</g>
<!-- \\O3PO_Public -->
<g id="node2" class="node"><title>\\O3PO_Public</title>
<polygon fill="none" stroke="black" points="458.5,-1294 367.5,-1294 367.5,-1258 458.5,-1258 458.5,-1294"/>
<text text-anchor="middle" x="413" y="-1273.2" font-family="Courier,monospace" font-size="11.00">O3PO_Public</text>
</g>
<!-- \\O3PO_Doaj -->
<g id="node3" class="node"><title>\\O3PO_Doaj</title>
<polygon fill="none" stroke="black" points="451.5,-1240 374.5,-1240 374.5,-1204 451.5,-1204 451.5,-1240"/>
<text text-anchor="middle" x="413" y="-1219.2" font-family="Courier,monospace" font-size="11.00">O3PO_Doaj</text>
</g>
<!-- \\O3PO_Activator -->
<g id="node4" class="node"><title>\\O3PO_Activator</title>
<polygon fill="none" stroke="black" points="468.5,-1186 357.5,-1186 357.5,-1150 468.5,-1150 468.5,-1186"/>
<text text-anchor="middle" x="413" y="-1165.2" font-family="Courier,monospace" font-size="11.00">O3PO_Activator</text>
</g>
<!-- \\O3PO_Latex -->
<g id="node5" class="node"><title>\\O3PO_Latex</title>
<polygon fill="none" stroke="black" points="455,-1132 371,-1132 371,-1096 455,-1096 455,-1132"/>
<text text-anchor="middle" x="413" y="-1111.2" font-family="Courier,monospace" font-size="11.00">O3PO_Latex</text>
</g>
<!-- \\O3PO_Latex_Dictionary_Provider -->
<g id="node6" class="node"><title>\\O3PO_Latex_Dictionary_Provider</title>
<polygon fill="none" stroke="black" points="235,-1132 16,-1132 16,-1096 235,-1096 235,-1132"/>
<text text-anchor="middle" x="125.5" y="-1111.2" font-family="Courier,monospace" font-size="11.00">O3PO_Latex_Dictionary_Provider</text>
</g>
<!-- \\O3PO_Latex&#45;&gt;\\O3PO_Latex_Dictionary_Provider -->
<g id="edge1" class="edge"><title>\\O3PO_Latex&#45;&gt;\\O3PO_Latex_Dictionary_Provider</title>
<path fill="none" stroke="black" d="M370.791,-1114C337.843,-1114 289.932,-1114 245.251,-1114"/>
<polygon fill="none" stroke="black" points="245.176,-1110.5 235.176,-1114 245.176,-1117.5 245.176,-1110.5"/>
</g>
<!-- \\O3PO_Ads -->
<g id="node7" class="node"><title>\\O3PO_Ads</title>
<polygon fill="none" stroke="black" points="448.5,-1078 377.5,-1078 377.5,-1042 448.5,-1042 448.5,-1078"/>
<text text-anchor="middle" x="413" y="-1057.2" font-family="Courier,monospace" font-size="11.00">O3PO_Ads</text>
</g>
<!-- \\O3PO_Crossref -->
<g id="node8" class="node"><title>\\O3PO_Crossref</title>
<polygon fill="none" stroke="black" points="465,-1024 361,-1024 361,-988 465,-988 465,-1024"/>
<text text-anchor="middle" x="413" y="-1003.2" font-family="Courier,monospace" font-size="11.00">O3PO_Crossref</text>
</g>
<!-- \\O3PO_PrimaryPublicationType -->
<g id="node9" class="node"><title>\\O3PO_PrimaryPublicationType</title>
<polygon fill="none" stroke="black" points="512.5,-970 313.5,-970 313.5,-934 512.5,-934 512.5,-970"/>
<text text-anchor="middle" x="413" y="-949.2" font-family="Courier,monospace" font-size="11.00">O3PO_PrimaryPublicationType</text>
</g>
<!-- \\O3PO_PublicationType -->
<g id="node13" class="node"><title>\\O3PO_PublicationType</title>
<polygon fill="none" stroke="black" points="201.5,-862 49.5,-862 49.5,-826 201.5,-826 201.5,-862"/>
<text text-anchor="start" x="91.5" y="-847.2" font-family="Courier,monospace" font-size="11.00">«abstract»</text>
<text text-anchor="start" x="57.5" y="-835.2" font-family="Courier,monospace" font-size="11.00">O3PO_PublicationType</text>
</g>
<!-- \\O3PO_PrimaryPublicationType&#45;&gt;\\O3PO_PublicationType -->
<g id="edge2" class="edge"><title>\\O3PO_PrimaryPublicationType&#45;&gt;\\O3PO_PublicationType</title>
<path fill="none" stroke="black" d="M335.553,-933.97C325.866,-931.21 316.149,-928.203 307,-925 259.534,-908.383 207.32,-884.278 171.315,-866.685"/>
<polygon fill="none" stroke="black" points="172.584,-863.409 162.066,-862.135 169.494,-869.69 172.584,-863.409"/>
</g>
<!-- \\O3PO_i18n -->
<g id="node10" class="node"><title>\\O3PO_i18n</title>
<polygon fill="none" stroke="black" points="451.5,-916 374.5,-916 374.5,-880 451.5,-880 451.5,-916"/>
<text text-anchor="middle" x="413" y="-895.2" font-family="Courier,monospace" font-size="11.00">O3PO_i18n</text>
</g>
<!-- \\O3PO_Bibentry -->
<g id="node11" class="node"><title>\\O3PO_Bibentry</title>
<polygon fill="none" stroke="black" points="465,-862 361,-862 361,-826 465,-826 465,-862"/>
<text text-anchor="middle" x="413" y="-841.2" font-family="Courier,monospace" font-size="11.00">O3PO_Bibentry</text>
</g>
<!-- \\O3PO_Singleton -->
<g id="node12" class="node"><title>\\O3PO_Singleton</title>
<polygon fill="none" stroke="black" points="181,-538 70,-538 70,-502 181,-502 181,-538"/>
<text text-anchor="middle" x="125.5" y="-517.2" font-family="Courier,monospace" font-size="11.00">O3PO_Singleton</text>
</g>
<!-- \\O3PO_Buffer -->
<g id="node14" class="node"><title>\\O3PO_Buffer</title>
<polygon fill="none" stroke="black" points="458.5,-808 367.5,-808 367.5,-772 458.5,-772 458.5,-808"/>
<text text-anchor="middle" x="413" y="-787.2" font-family="Courier,monospace" font-size="11.00">O3PO_Buffer</text>
</g>
<!-- \\O3PO_SecondaryPublicationType -->
<g id="node15" class="node"><title>\\O3PO_SecondaryPublicationType</title>
<polygon fill="none" stroke="black" points="519,-754 307,-754 307,-718 519,-718 519,-754"/>
<text text-anchor="middle" x="413" y="-733.2" font-family="Courier,monospace" font-size="11.00">O3PO_SecondaryPublicationType</text>
</g>
<!-- \\O3PO_SecondaryPublicationType&#45;&gt;\\O3PO_PublicationType -->
<g id="edge3" class="edge"><title>\\O3PO_SecondaryPublicationType&#45;&gt;\\O3PO_PublicationType</title>
<path fill="none" stroke="black" d="M335.553,-754.03C325.866,-756.79 316.149,-759.797 307,-763 259.534,-779.617 207.32,-803.722 171.315,-821.315"/>
<polygon fill="none" stroke="black" points="169.494,-818.31 162.066,-825.865 172.584,-824.591 169.494,-818.31"/>
</g>
<!-- \\O3PO_Plotter -->
<g id="node16" class="node"><title>\\O3PO_Plotter</title>
<polygon fill="none" stroke="black" points="462,-700 364,-700 364,-664 462,-664 462,-700"/>
<text text-anchor="middle" x="413" y="-679.2" font-family="Courier,monospace" font-size="11.00">O3PO_Plotter</text>
</g>
<!-- \\O3PO_Admin -->
<g id="node17" class="node"><title>\\O3PO_Admin</title>
<polygon fill="none" stroke="black" points="455,-646 371,-646 371,-610 455,-610 455,-646"/>
<text text-anchor="middle" x="413" y="-625.2" font-family="Courier,monospace" font-size="11.00">O3PO_Admin</text>
</g>
<!-- \\O3PO_Author -->
<g id="node18" class="node"><title>\\O3PO_Author</title>
<polygon fill="none" stroke="black" points="458.5,-592 367.5,-592 367.5,-556 458.5,-556 458.5,-592"/>
<text text-anchor="middle" x="413" y="-571.2" font-family="Courier,monospace" font-size="11.00">O3PO_Author</text>
</g>
<!-- \\O3PO_Settings -->
<g id="node19" class="node"><title>\\O3PO_Settings</title>
<polygon fill="none" stroke="black" points="465,-538 361,-538 361,-502 465,-502 465,-538"/>
<text text-anchor="middle" x="413" y="-517.2" font-family="Courier,monospace" font-size="11.00">O3PO_Settings</text>
</g>
<!-- \\O3PO_Settings&#45;&gt;\\O3PO_Singleton -->
<g id="edge4" class="edge"><title>\\O3PO_Settings&#45;&gt;\\O3PO_Singleton</title>
<path fill="none" stroke="black" d="M360.958,-520C313.593,-520 242.868,-520 191.487,-520"/>
<polygon fill="none" stroke="black" points="191.481,-516.5 181.481,-520 191.481,-523.5 191.481,-516.5"/>
</g>
<!-- \\O3PO_Relevanssi -->
<g id="node20" class="node"><title>\\O3PO_Relevanssi</title>
<polygon fill="none" stroke="black" points="472,-484 354,-484 354,-448 472,-448 472,-484"/>
<text text-anchor="middle" x="413" y="-463.2" font-family="Courier,monospace" font-size="11.00">O3PO_Relevanssi</text>
</g>
<!-- \\O3PO_Clockss -->
<g id="node21" class="node"><title>\\O3PO_Clockss</title>
<polygon fill="none" stroke="black" points="462,-430 364,-430 364,-394 462,-394 462,-430"/>
<text text-anchor="middle" x="413" y="-409.2" font-family="Courier,monospace" font-size="11.00">O3PO_Clockss</text>
</g>
<!-- \\O3PO_Utility -->
<g id="node22" class="node"><title>\\O3PO_Utility</title>
<polygon fill="none" stroke="black" points="462,-376 364,-376 364,-340 462,-340 462,-376"/>
<text text-anchor="middle" x="413" y="-355.2" font-family="Courier,monospace" font-size="11.00">O3PO_Utility</text>
</g>
<!-- \\O3PO -->
<g id="node23" class="node"><title>\\O3PO</title>
<polygon fill="none" stroke="black" points="440,-322 386,-322 386,-286 440,-286 440,-322"/>
<text text-anchor="middle" x="413" y="-301.2" font-family="Courier,monospace" font-size="11.00">O3PO</text>
</g>
<!-- \\O3PO_Environment -->
<g id="node24" class="node"><title>\\O3PO_Environment</title>
<polygon fill="none" stroke="black" points="475.5,-268 350.5,-268 350.5,-232 475.5,-232 475.5,-268"/>
<text text-anchor="middle" x="413" y="-247.2" font-family="Courier,monospace" font-size="11.00">O3PO_Environment</text>
</g>
<!-- \\O3PO_Journal -->
<g id="node25" class="node"><title>\\O3PO_Journal</title>
<polygon fill="none" stroke="black" points="462,-214 364,-214 364,-178 462,-178 462,-214"/>
<text text-anchor="middle" x="413" y="-193.2" font-family="Courier,monospace" font-size="11.00">O3PO_Journal</text>
</g>
<!-- \\O3PO_Arxiv -->
<g id="node26" class="node"><title>\\O3PO_Arxiv</title>
<polygon fill="none" stroke="black" points="455,-160 371,-160 371,-124 455,-124 455,-160"/>
<text text-anchor="middle" x="413" y="-139.2" font-family="Courier,monospace" font-size="11.00">O3PO_Arxiv</text>
</g>
<!-- \\O3PO_EmailTemplates -->
<g id="node27" class="node"><title>\\O3PO_EmailTemplates</title>
<polygon fill="none" stroke="black" points="485.5,-106 340.5,-106 340.5,-70 485.5,-70 485.5,-106"/>
<text text-anchor="middle" x="413" y="-85.2" font-family="Courier,monospace" font-size="11.00">O3PO_EmailTemplates</text>
</g>
<!-- \\O3PO_Loader -->
<g id="node28" class="node"><title>\\O3PO_Loader</title>
<polygon fill="none" stroke="black" points="458.5,-52 367.5,-52 367.5,-16 458.5,-16 458.5,-52"/>
<text text-anchor="middle" x="413" y="-31.2" font-family="Courier,monospace" font-size="11.00">O3PO_Loader</text>
</g>
</g>
</svg>
